<?xml version="1.0" encoding="UTF-8" standalone="no"?>
<!-- Generator: Adobe Illustrator 16.0.3, SVG Export Plug-In . SVG Version: 6.00 Build 0)  -->

<svg
   xmlns:osb="http://www.openswatchbook.org/uri/2009/osb"
   xmlns:dc="http://purl.org/dc/elements/1.1/"
   xmlns:cc="http://creativecommons.org/ns#"
   xmlns:rdf="http://www.w3.org/1999/02/22-rdf-syntax-ns#"
   xmlns:svg="http://www.w3.org/2000/svg"
   xmlns="http://www.w3.org/2000/svg"
   xmlns:xlink="http://www.w3.org/1999/xlink"
   xmlns:sodipodi="http://sodipodi.sourceforge.net/DTD/sodipodi-0.dtd"
   xmlns:inkscape="http://www.inkscape.org/namespaces/inkscape"
   version="1.1"
   id="Layer_1"
   x="0px"
   y="0px"
   width="3193px"
   height="788px"
   viewBox="0 0 3193 788"
   enable-background="new 0 0 3193 788"
   xml:space="preserve"
   sodipodi:docname="logoess_horizontal-azul.svg"
   inkscape:version="0.92.4 (5da689c313, 2019-01-14)"
   inkscape:export-filename="/home/luis/html/mural/webroot/img/logoess_horizontal-azul.png"
   inkscape:export-xdpi="9.4681187"
   inkscape:export-ydpi="9.4681187"><metadata
   id="metadata41"><rdf:RDF><cc:Work
       rdf:about=""><dc:format>image/svg+xml</dc:format><dc:type
         rdf:resource="http://purl.org/dc/dcmitype/StillImage" /><dc:title /></cc:Work></rdf:RDF></metadata><defs
   id="defs39"><linearGradient
     id="linearGradient6012"
     osb:paint="solid"><stop
       style="stop-color:#2b6c9c;stop-opacity:1;"
       offset="0"
       id="stop6010" /></linearGradient><linearGradient
     inkscape:collect="always"
     xlink:href="#linearGradient6012"
     id="linearGradient6014"
     x1="117.5"
     y1="392.5"
     x2="1107.5"
     y2="392.5"
     gradientUnits="userSpaceOnUse" /></defs><sodipodi:namedview
   pagecolor="#ffffff"
   bordercolor="#666666"
   borderopacity="1"
   objecttolerance="10"
   gridtolerance="10"
   guidetolerance="10"
   inkscape:pageopacity="0"
   inkscape:pageshadow="2"
   inkscape:window-width="1366"
   inkscape:window-height="668"
   id="namedview37"
   showgrid="false"
   inkscape:zoom="0.36377198"
   inkscape:cx="1137.1634"
   inkscape:cy="394"
   inkscape:window-x="0"
   inkscape:window-y="0"
   inkscape:window-maximized="1"
   inkscape:current-layer="Layer_1" />
<g
   id="g22"
   style="fill:#ffffff;stroke:#2b6c9c;stroke-opacity:1;fill-opacity:1;stroke-width:5;stroke-miterlimit:4;stroke-dasharray:none;paint-order:normal;stroke-linecap:butt">
	<path
   d="M1247.746,674.139c-15.383-5.021-26.803-14.16-33.598-26.9c-3.209-6.041-3.605-12.495-4.134-68.126l-0.566-61.46h18.195   h18.197l0.018,50.985c0,52.362,1.133,62.592,7.606,69.069c8.702,8.702,29.655,8.039,38.356-1.21   c4.493-4.774,4.531-5.077,5.474-61.347l0.944-56.535l18.687-0.548l18.668-0.549l-0.566,59.61   c-0.547,55.762-0.83,60.18-4.567,68.223c-5.078,10.984-14.609,20.5-25.521,25.464c-6.794,3.077-13.212,4.001-30.521,4.38   C1262.375,675.458,1250.37,674.987,1247.746,674.139L1247.746,674.139z M1684.889,671.268c-5.322-2.474-11.531-6.871-13.816-9.759   c-5.928-7.552-9.854-22.463-9.854-37.488v-12.988h17.158h17.14l0.055,7.136c0.077,10.872,3.174,22.013,6.892,24.729   c4.418,3.229,14.289,3.096,18.894-0.264c3.493-2.549,3.757-6.116,4.663-63.369l0.944-60.648h18.101h18.102l0.512,57.007   c0.66,75.165-1.662,84.715-23.161,95.438c-8.175,4.078-12.14,4.758-27.749,4.737   C1697.666,675.781,1692.93,675.023,1684.889,671.268L1684.889,671.268z M1373.515,594.839v-77.187h56.212h56.193v15.253v15.249   h-38.091h-38.11v14.234v14.25l32.863,0.528l32.862,0.51v15.252v15.234l-32.862,0.529l-32.863,0.53v31.389v31.393h-18.102h-18.102   V594.839L1373.515,594.839z M1511.157,594.365l0.49-77.656h43.831c48.527,0,56.889,1.32,68.439,10.852   c10.574,8.722,15.122,19.085,15.272,34.884c0.113,11.29-0.681,14.723-5.172,22.351c-2.925,4.964-7.022,9.93-9.099,11.043   c-3.681,1.98-3.623,2.246,1.889,7.739c6.303,6.304,7.041,9.456,8.664,36.902c0.736,12.667,2.037,20.008,3.906,22.066   c1.529,1.699,2.793,4.532,2.793,6.269c0,2.775-2.566,3.189-19.895,3.189c-12.949,0-20.366-0.757-21.252-2.188   c-0.737-1.209-1.869-12.442-2.494-24.937c-1.49-29.787-1.734-30.033-30.878-30.033h-20.746v28.577v28.581h-18.121h-18.139   L1511.157,594.365L1511.157,594.365z M1586.848,582.548c10.193-1.962,15.308-7.533,15.308-16.629   c0-14.518-6.511-17.765-35.524-17.765h-19.724v18.105v18.102l15.724-0.095C1571.275,584.229,1582.168,583.454,1586.848,582.548   L1586.848,582.548z M1926.93,494.623c-0.714-1.152,2.379-5.834,6.872-10.42c7.306-7.439,7.796-8.455,4.511-9.553   c-21.235-7.098-37.598-21.859-44.85-40.451c-5.245-13.439-7.207-48.701-3.605-65.065c4.986-22.692,18.293-40.265,37.866-50.006   c7.759-3.869,11.647-4.397,31.69-4.397c19.354,0,24.238,0.622,31.676,4.057c18.025,8.345,33.223,27.939,34.504,44.53l0.53,6.665   l-18.367,0.547l-18.346,0.546l-1.269-5.04c-3.132-12.458-13.438-19.878-27.629-19.878c-22.767,0-35.223,17.197-35.223,48.589   c0,32.694,13.814,50.402,37.563,48.117c13.609-1.304,20.762-7.571,26.086-22.862c1.811-5.19,2-5.246,18.817-5.246   c19.592,0,20.595,0.87,16.573,14.233c-3.775,12.533-11.363,24.52-20.441,32.278c-8.23,7.04-25.086,14.48-32.828,14.48   c-3.247,0-6.283,2.772-11.381,10.474l-6.965,10.478h-12.25C1933.648,496.699,1927.629,495.773,1926.93,494.623L1926.93,494.623z    M1258.223,475.558c-9.419-0.624-20.517-2.587-24.65-4.359c-18.5-7.872-29.901-22.84-30.335-39.831l-0.264-9.929l17.251-0.548   l17.234-0.547l1.813,8.098c1.358,6.077,3.302,8.945,7.814,11.57c18.102,10.459,49.662,2.983,47.944-11.364   c-0.944-7.85-8.758-11.872-36.184-18.591c-28.691-7.04-38.808-11.439-46.039-20.047c-12.382-14.704-11.702-40.868,1.492-58.157   c10.965-14.405,36.373-21.689,62.572-17.992c23.104,3.27,39.148,14.687,46.057,32.789c1.793,4.664,2.964,10.967,2.623,14.008   l-0.621,5.51l-17.631,0.548c-17.498,0.548-17.628,0.51-17.628-4.021c0-14.308-21.67-22.688-39.848-15.423   c-13.043,5.231-13.854,19.54-1.339,23.521c3.265,1.038,16.648,4.569,29.747,7.833c13.1,3.267,27.954,8.192,33.013,10.931   c16.743,9.118,23.897,29.258,17.782,50.135c-3.907,13.385-12.175,23.164-24.784,29.314   C1291.331,475.332,1279.646,476.992,1258.223,475.558L1258.223,475.558z M2334.797,476.124   c-29.258-2.909-50.586-21.559-51.191-44.757l-0.262-9.929l17.629-0.548c16.779-0.528,17.631-0.359,17.631,3.416   c0,2.19,1.207,6.344,2.717,9.231c9.174,17.763,56.288,13.497,54.08-4.891c-0.945-7.85-8.742-11.872-36.168-18.591   c-28.707-7.04-38.809-11.439-46.037-20.047c-12.383-14.704-11.722-40.868,1.471-58.157c18.99-24.88,77.863-25.051,99.609-0.303   c7.058,8.042,12.494,21.652,11.643,29.108l-0.619,5.51h-17.027h-17.026l-1.583-6.058c-2.154-8.363-9.4-13.459-21.18-14.931   c-18.215-2.284-32.447,7.325-28.051,18.895c1.984,5.21,4.343,6.115,38.186,14.554c13.102,3.267,27.955,8.192,32.996,10.931   c16.744,9.118,23.896,29.258,17.782,50.135c-6.419,21.972-23.69,33.809-52.269,35.827   C2347.992,476.162,2337.932,476.444,2334.797,476.124L2334.797,476.124z M2097.305,472.857   c-20.367-6.513-37.604-24.294-44.644-46.096c-4.774-14.743-4.851-48.362-0.17-63.689c9.628-31.372,35.356-49.231,71.294-49.439   c24.708-0.149,42.643,7.401,57.364,24.126c13.212,15.007,16.346,25.897,16.346,56.987c0,23.293-0.546,28.067-4.345,37.547   c-6.037,15.176-18.74,28.614-34.18,36.221c-11.569,5.703-14.404,6.284-32.75,6.703   C2112.592,475.519,2103.307,474.763,2097.305,472.857L2097.305,472.857z M2143.926,437.825c4.475-2.759,8.587-7.836,12.007-14.82   c4.454-9.117,5.208-13.063,5.285-28.03c0.095-15.347-0.528-18.745-5.229-28.353c-4.041-8.267-7.382-12.117-13.666-15.801   c-13.911-8.155-32.106-6.303-43.321,4.397c-17.288,16.481-17.063,62.747,0.397,79.47   C2110.309,445.166,2129.846,446.544,2143.926,437.825L2143.926,437.825z M2481.518,472.386   c-21.01-7.474-35.428-22.085-43.394-43.965c-5.853-16.062-5.796-49.945,0.13-67.01c7.891-22.746,21.141-36.206,43.396-44.037   c16.854-5.949,44.753-4.588,61.383,2.981c14.951,6.777,28.863,21.424,34.977,36.771c3.832,9.589,4.379,14.29,4.379,37.621   c0,32.053-3.227,42.566-18.045,58.782c-14.174,15.518-27.842,21.084-53.303,21.745   C2495.693,475.652,2488.822,474.99,2481.518,472.386L2481.518,472.386z M2528.82,437.825c4.51-2.777,8.588-7.855,12.1-15.011   c4.586-9.398,5.286-13.079,5.286-28.067c0-15.007-0.681-18.65-5.343-28.145c-4.023-8.248-7.359-12.098-13.645-15.781   c-13.914-8.155-32.112-6.303-43.322,4.397c-12.516,11.933-16.836,43.041-8.926,64.2   C2483.537,442.316,2508.021,450.678,2528.82,437.825L2528.82,437.825z M2643.207,471.764   c-18.613-7.158-33.145-23.861-39.544-45.435c-3.833-12.93-4.062-46.72-0.397-60.444c5.774-21.708,18.178-37.356,37.092-46.757   c7.738-3.869,11.645-4.397,31.689-4.397c21.537,0,23.521,0.321,33.941,5.605c17.725,8.985,30.9,26.598,32.221,43.132l0.527,6.515   l-18.402,0.547l-18.423,0.546l-1.267-5.795c-2.866-13.043-16.986-20.782-33.785-18.537c-10.873,1.455-16.761,6.343-23.295,19.348   c-4.924,9.798-5.645,13.253-5.662,27.56c-0.055,33.581,13.008,51.213,36.449,49.27c14.668-1.229,21.727-7.157,27.218-22.92   c1.813-5.19,2.001-5.246,18.821-5.246c19.594,0,20.596,0.87,16.553,14.233c-6.115,20.329-20.254,36.055-38.617,42.923   C2684.3,477.161,2657.042,477.087,2643.207,471.764L2643.207,471.764z M1514.289,471.801c-1-0.623-1.528-33.43-1.227-78.129   l0.492-77.036l46.678,0.097c44.736,0.093,47.06,0.282,55.722,4.491c4.966,2.397,11.59,7.306,14.706,10.855   c7.379,8.397,12.325,25.238,10.777,36.62c-1.342,9.701-9.005,24.066-14.402,26.954c-3.38,1.812-3.266,2.246,1.907,7.797   c6.114,6.53,6.831,9.702,8.437,36.961c0.736,12.666,2.039,20.007,3.907,22.067c1.53,1.696,2.793,4.509,2.793,6.266   c0,2.772-2.566,3.19-19.894,3.19c-12.496,0-20.387-0.795-21.199-2.115c-0.718-1.169-1.887-12.422-2.605-25.028   c-1.697-29.902-1.832-30.034-30.822-30.034h-20.744v28.446v28.448l-16.402,0.622   C1523.388,472.611,1515.234,472.404,1514.289,471.801L1514.289,471.801z M1587.754,382.497   c11.326-1.852,16.329-7.099,16.252-17.007c-0.133-13.97-7.135-17.424-35.316-17.424h-19.875v18.102v18.104l14.76-0.113   C1571.69,384.1,1582.583,383.345,1587.754,382.497L1587.754,382.497z M2809.635,471.594c-2.229-1.398-1.604-3.341,31.653-96.837   l19.989-56.214l20.914-0.548l20.896-0.526l9.212,26.256c5.06,14.44,17.099,48.551,26.726,75.809   c9.645,27.237,16.895,50.209,16.122,51.04c-0.796,0.832-9.796,1.246-20.026,0.942l-18.611-0.546l-4.645-14.763l-4.644-14.759   h-25.255h-25.259l-4.792,14.759l-4.774,14.763l-17.727,0.964C2819.677,472.46,2810.787,472.312,2809.635,471.594L2809.635,471.594z    M2895.934,408.49c0-1.755-10.08-34.715-12.666-41.358c-0.922-2.417-15.911,37.546-15.911,42.434c0,0.868,6.437,1.416,14.29,1.209   C2889.666,410.566,2895.934,409.565,2895.934,408.49L2895.934,408.49z M1362.078,394.784V317.58h58.117h58.119v15.216v15.194   l-39.545,0.51l-39.543,0.528l-0.548,12.854l-0.566,12.874h36.279h36.297v16.196v16.196h-36.203h-36.203v17.103v17.121l41.451,0.508   l41.433,0.51v14.291v14.289l-59.534,0.51l-59.552,0.513V394.784L1362.078,394.784z M1708.86,471.311   c0-0.341-11.136-33.866-24.765-74.506c-13.627-40.622-24.765-75.109-24.765-76.619c0-2.228,3.53-2.644,19.348-2.191l19.349,0.548   l14.326,50.949c7.871,28.029,14.799,50.474,15.422,49.871c0.602-0.604,7.549-23.539,15.459-50.967l14.346-49.853h18.987   c15.839,0,18.913,0.474,18.462,2.852c-0.283,1.566-11.76,36.09-25.482,76.693l-24.975,73.847h-17.857   C1716.902,471.934,1708.86,471.65,1708.86,471.311L1708.86,471.311z M1820.945,467.649c-0.34-2.361-0.379-37.131-0.094-77.242   l0.525-72.959l17.574,0.546l17.574,0.548l0.51,76.695l0.491,76.696h-17.987C1822.342,471.934,1821.529,471.744,1820.945,467.649   L1820.945,467.649z M2758.746,394.747V317.58h18.101h18.103v77.167v77.187h-18.103h-18.101V394.747L2758.746,394.747z    M2970.248,394.747V317.58h18.104h18.099v60.934v60.932l36.676,0.531l36.693,0.509l0.548,15.722l0.547,15.727h-55.32h-55.346   V394.747L2970.248,394.747z M1404.943,275.486c-30.466-2.906-50.568-20.255-51.19-44.19l-0.246-9.949l17.61-0.546   c16.781-0.51,17.63-0.34,17.63,3.434c0,2.192,1.227,6.344,2.719,9.233c9.173,17.743,56.286,13.496,54.079-4.89   c-0.926-7.873-8.74-11.873-36.167-18.613c-28.692-7.041-38.808-11.438-46.038-20.027c-12.231-14.536-11.704-40.869,1.133-57.725   c19.292-25.276,78.032-25.709,99.946-0.735c7.059,8.021,12.514,21.65,11.665,29.106l-0.642,5.513h-17.026h-17.026l-1.566-6.078   c-0.869-3.343-3.775-7.797-6.456-9.913c-9.608-7.548-31.806-7.02-39.772,0.926c-4.208,4.209-3.831,15.405,0.606,17.783   c1.943,1.039,15.969,5.002,31.181,8.814c45.396,11.364,55.609,20.083,55.723,47.587   C1481.257,261.047,1452.51,280.016,1404.943,275.486L1404.943,275.486z M1547.587,271.691   c-11.854-4.549-25.294-16.007-31.768-27.031c-8.872-15.119-11.345-28.049-10.514-54.777c0.736-23.466,0.981-24.692,7.89-38.678   c12.515-25.334,29.087-35.774,58.834-37.112c22.975-1.038,36.243,2.662,50.061,13.911c10.589,8.627,19.744,24.353,20.555,35.243   l0.472,6.663l-18.347,0.548l-18.348,0.529l-1.264-5.022c-3.134-12.458-13.439-19.876-27.635-19.876   c-22.764,0-35.033,16.971-35.164,48.588c-0.152,32.581,13.74,50.4,37.505,48.116c13.61-1.321,20.763-7.589,26.087-22.86   c1.793-5.152,2.096-5.247,17.837-5.247c19.65,0,21.406,1.396,17.609,13.984c-6.19,20.578-20.233,36.267-38.674,43.172   C1588.679,277.091,1561.423,277.015,1547.587,271.691L1547.587,271.691z M1714.713,271.805   c-27.237-9.796-41.697-29.049-46.304-61.632c-5.774-40.771,9.985-76.336,40.075-90.438c9.869-4.623,12.928-5.095,33.769-5.095   c22.025,0,23.386,0.244,35.599,6.268c15.478,7.607,28.162,21.046,34.222,36.224c3.775,9.494,4.341,14.251,4.341,37.545   c0,23.141-0.565,28.088-4.246,37.318c-7.702,19.273-24.576,34.788-44.15,40.604C1753.484,276.92,1727.869,276.543,1714.713,271.805   L1714.713,271.805z M1761.429,238.507c6.077-3.569,9.476-7.512,13.478-15.686c4.701-9.629,5.324-13.008,5.229-28.354   c-0.075-15.024-0.812-18.914-5.341-28.146c-6.57-13.419-17.178-20.423-31.031-20.5c-17.632-0.093-28.561,7.59-34.903,24.502   c-9.757,26.126-0.585,62.178,17.876,70.201C1736.701,244.869,1752.105,243.961,1761.429,238.507L1761.429,238.507z    M1999.924,272.258c-13.004-0.378-18.592-1.247-18.573-2.852c0-1.887,39.111-112.937,50.625-143.8l3.04-8.097h20.516h20.518   l25.975,73.846c14.27,40.603,26.198,75.106,26.482,76.692c0.414,2.322-2.965,3.021-18.255,3.794   c-11.438,0.585-19.272,0.226-20.082-0.943c-0.755-1.057-3.303-8.116-5.665-15.724l-4.303-13.818h-25.311h-25.314l-2.622,8.099   c-1.437,4.456-3.927,11.534-5.532,15.724l-2.926,7.628L1999.924,272.258L1999.924,272.258z M2068.988,208.626   c0-3.096-11.775-40.283-13.361-42.13c-1.04-1.229-15.216,39.035-15.216,43.187c0,0.662,6.417,1.189,14.288,1.189   C2064.384,210.872,2068.988,210.156,2068.988,208.626L2068.988,208.626z M2245.252,271.597c-0.567-1.434-0.792-36.902-0.51-78.828   l0.492-76.221h40.016c27.746,0.019,42.696,0.792,48.773,2.566c12.25,3.548,26.068,14.705,32.561,26.275   c15.648,27.919,13.441,76.677-4.643,102.102c-7.568,10.667-13.554,15.556-25.633,20.972c-8.174,3.663-13.364,4.191-49.605,4.926   C2253.596,274.068,2246.064,273.75,2245.252,271.597L2245.252,271.597z M2319.322,238.714c8.453-3.529,13.852-11.571,17.609-26.218   c5.871-22.937,0.111-52.193-11.818-60.009c-4.001-2.622-10.059-3.643-24.953-4.19l-19.668-0.735v46.907v46.888h16.25   C2306.296,241.356,2315.62,240.281,2319.322,238.714L2319.322,238.714z M1209.636,194.713V117.51h58.117h58.119v15.234v15.251   h-40.015h-40.017v13.345v13.327h36.203h36.205v16.196v16.196h-36.205h-36.203v17.122v17.101l41.45,0.529l41.433,0.51v14.288v14.29   l-59.536,0.509l-59.552,0.492V194.713L1209.636,194.713z M1847.955,194.677V117.51h18.104h18.101v60.969v60.972h36.09   c19.858,0,36.505,0.679,37.019,1.49c0.848,1.38,1.924,23.012,1.434,28.523c-0.172,1.852-12.666,2.378-55.477,2.378h-55.27V194.677   L1847.955,194.677z M2408.15,194.713V117.51h58.117h58.115v15.234v15.251h-40.014h-40.017v13.345v13.327h36.204h36.203v16.196   v16.196h-36.203h-36.204v17.122v17.101l41.451,0.529l41.431,0.51v14.288v14.29l-59.534,0.509l-59.55,0.492V194.713L2408.15,194.713   z"
   id="path20"
   style="fill:#ffffff;stroke:#2b6c9c;stroke-opacity:1;fill-opacity:1;stroke-width:5;stroke-miterlimit:4;stroke-dasharray:none;paint-order:normal;stroke-linecap:butt" />
</g>
<rect
   x="118"
   y="113"
   fill="#007983"
   width="989"
   height="559"
   id="rect24"
   style="fill:url(#linearGradient6014);fill-opacity:1;stroke:#1f0030;stroke-opacity:1" />
<g
   id="g34"
   style="fill:#ffffff">
	<defs
   id="defs27">
		<rect
   id="SVGID_1_"
   x="235.376"
   y="206.701"
   width="759.248"
   height="378.545" />
	</defs>
	<clipPath
   id="SVGID_2_">
		<use
   xlink:href="#SVGID_1_"
   overflow="visible"
   id="use29" />
	</clipPath>
	<path
   clip-path="url(#SVGID_2_)"
   fill="#FFFFFF"
   d="M779.375,349.06c4.246,11.131,10.341,20.672,18.292,28.622   c7.95,7.951,17.669,14.765,29.156,20.415c11.487,5.657,24.652,11.131,39.503,16.434c14.128,4.957,25.888,9.374,35.251,13.256   c9.364,3.889,16.878,8.046,22.53,12.461c5.65,4.424,9.63,9.808,11.937,16.17c2.293,6.36,3.439,14.497,3.439,24.385   c0,8.839-1.057,16.788-3.18,23.86c-2.122,7.072-5.924,12.988-11.396,17.759c-5.489,4.771-13.078,8.483-22.796,11.132   c-9.726,2.656-22.004,3.98-36.849,3.98c-16.968,0-32.958-0.882-47.979-2.656c-15.023-1.761-28.72-3.528-41.087-5.296v26.509   c0,4.237,0.873,7.773,2.648,10.597c1.76,2.834,4.949,5.127,9.542,6.896c8.831,3.181,21.212,5.916,37.114,8.218   c15.903,2.293,32.338,3.446,49.305,3.446c38.875,0,68.563-8.217,89.066-24.653c20.502-16.434,30.753-43.741,30.753-81.913   c0-17.67-2.21-32.248-6.627-43.735c-4.423-11.486-10.784-21.204-19.081-29.163c-8.314-7.951-18.21-14.577-29.69-19.881   c-11.494-5.296-24.304-10.6-38.445-15.903c-13.779-4.946-25.363-9.274-34.719-12.987c-9.372-3.712-16.967-7.863-22.796-12.464   c-5.836-4.586-9.999-9.978-12.462-16.167c-2.478-6.183-3.714-14.046-3.714-23.596c0-8.482,1.146-15.901,3.448-22.262   c2.292-6.361,6.175-11.663,11.662-15.91c5.475-4.237,12.812-7.5,21.998-9.808c9.186-2.293,20.679-3.446,34.466-3.446   c14.482,0,28.625,0.622,42.411,1.856c13.787,1.243,27.219,2.744,40.296,4.504v-24.385c0-3.883-0.622-7.331-1.856-10.34   c-1.243-2.995-4.689-5.739-10.333-8.217c-8.136-2.825-19.623-5.208-34.467-7.153c-14.845-1.938-29.688-2.922-44.533-2.922   c-39.948,0-69.452,8.484-88.541,25.451c-19.084,16.967-28.625,42.24-28.625,75.812C773.015,324.229,775.13,337.92,779.375,349.06    M507.08,349.06c4.239,11.131,10.333,20.672,18.292,28.622c7.951,7.951,17.67,14.765,29.157,20.415   c11.479,5.657,24.66,11.131,39.497,16.434c14.141,4.957,25.887,9.374,35.258,13.256c9.363,3.889,16.871,8.046,22.536,12.461   c5.65,4.424,9.624,9.808,11.923,16.17c2.293,6.36,3.447,14.497,3.447,24.385c0,8.839-1.057,16.788-3.18,23.86   c-2.115,7.072-5.917,12.988-11.397,17.759c-5.48,4.771-13.084,8.483-22.796,11.132c-9.726,2.656-22.003,3.98-36.847,3.98   c-16.96,0-32.966-0.882-47.981-2.656c-15.029-1.761-28.719-3.528-41.086-5.296v26.509c0,4.237,0.88,7.773,2.656,10.597   c1.761,2.834,4.941,5.127,9.541,6.896c8.833,3.181,21.198,5.916,37.109,8.218c15.908,2.293,32.343,3.446,49.31,3.446   c38.875,0,68.565-8.217,89.068-24.653c20.486-16.434,30.746-43.741,30.746-81.913c0-17.67-2.211-32.248-6.628-43.735   c-4.422-11.486-10.783-21.204-19.089-29.163c-8.307-7.951-18.203-14.577-29.69-19.881c-11.487-5.296-24.304-10.6-38.431-15.903   c-13.787-4.946-25.369-9.274-34.733-12.987c-9.363-3.712-16.959-7.863-22.795-12.464c-5.828-4.586-9.985-9.978-12.455-16.167   c-2.478-6.183-3.712-14.046-3.712-23.596c0-8.482,1.146-15.901,3.446-22.262c2.293-6.361,6.183-11.663,11.664-15.91   c5.481-4.237,12.803-7.5,22.004-9.808c9.187-2.293,20.681-3.446,34.46-3.446c14.489,0,28.631,0.622,42.418,1.856   c13.779,1.243,27.204,2.744,40.287,4.504v-24.385c0-3.883-0.621-7.331-1.855-10.34c-1.244-2.995-4.689-5.739-10.341-8.217   c-8.136-2.825-19.615-5.208-34.46-7.153c-14.843-1.938-29.688-2.922-44.533-2.922c-39.94,0-69.451,8.484-88.534,25.451   c-19.09,16.967-28.631,42.24-28.631,75.812C500.719,324.229,502.842,337.92,507.08,349.06 M235.376,212.005v355.216   c0,8.137,4.242,12.196,12.726,12.196h200.932v-33.402c0-3.89-1.149-6.892-3.446-9.015c-2.3-2.123-5.392-3.182-9.279-3.182H291.044   V416.654h137.842V382.72c0-8.129-4.065-12.188-12.193-12.188H291.044V257.603h151.628V224.2c0-8.128-4.068-12.195-12.197-12.195   H235.376z"
   id="path32"
   style="fill:#ffffff" />
</g>
</svg>