<?xml version="1.0" encoding="UTF-8" standalone="no"?>
<!-- Created with Inkscape (http://www.inkscape.org/) -->

<svg
   xmlns:dc="http://purl.org/dc/elements/1.1/"
   xmlns:cc="http://creativecommons.org/ns#"
   xmlns:rdf="http://www.w3.org/1999/02/22-rdf-syntax-ns#"
   xmlns:svg="http://www.w3.org/2000/svg"
   xmlns="http://www.w3.org/2000/svg"
   xmlns:xlink="http://www.w3.org/1999/xlink"
   xmlns:sodipodi="http://sodipodi.sourceforge.net/DTD/sodipodi-0.dtd"
   xmlns:inkscape="http://www.inkscape.org/namespaces/inkscape"
   width="64"
   height="64"
   id="svg2"
   sodipodi:version="0.32"
   inkscape:version="0.48.0 r9654"
   version="1.0"
   sodipodi:docname="mural_Noticias.svg"
   inkscape:output_extension="org.inkscape.output.svg.inkscape"
   sodipodi:modified="true">
  <sodipodi:namedview
     id="base"
     pagecolor="#ffffff"
     bordercolor="#666666"
     borderopacity="1.0"
     inkscape:pageopacity="0.0"
     inkscape:pageshadow="2"
     inkscape:zoom="3.83"
     inkscape:cx="9.7239335"
     inkscape:cy="9.749061"
     inkscape:document-units="px"
     inkscape:current-layer="g6092"
     width="1052.3622px"
     height="744.09448px"
     inkscape:window-width="1020"
     inkscape:window-height="690"
     inkscape:window-x="0"
     inkscape:window-y="24"
     showguides="true"
     inkscape:guide-bbox="true"
     inkscape:showpageshadow="true"
     showgrid="false"
     fit-margin-top="0"
     fit-margin-left="0"
     fit-margin-right="0"
     fit-margin-bottom="0"
     inkscape:window-maximized="0" />
  <defs
     id="defs4">
    <linearGradient
       inkscape:collect="always"
       id="linearGradient4740">
      <stop
         style="stop-color:#aa734d;stop-opacity:1;"
         offset="0"
         id="stop4742" />
      <stop
         style="stop-color:#aa734d;stop-opacity:0;"
         offset="1"
         id="stop4744" />
    </linearGradient>
    <linearGradient
       inkscape:collect="always"
       id="linearGradient4732">
      <stop
         style="stop-color:#894618;stop-opacity:1;"
         offset="0"
         id="stop4734" />
      <stop
         style="stop-color:#894618;stop-opacity:0;"
         offset="1"
         id="stop4736" />
    </linearGradient>
    <linearGradient
       id="linearGradient4724">
      <stop
         style="stop-color:#331400;stop-opacity:1;"
         offset="0"
         id="stop4726" />
      <stop
         style="stop-color:#803300;stop-opacity:0;"
         offset="1"
         id="stop4728" />
    </linearGradient>
    <linearGradient
       id="linearGradient4714">
      <stop
         style="stop-color:#663412;stop-opacity:1;"
         offset="0"
         id="stop4716" />
      <stop
         style="stop-color:#8f491a;stop-opacity:0;"
         offset="1"
         id="stop4718" />
    </linearGradient>
    <linearGradient
       id="linearGradient4696">
      <stop
         style="stop-color:#663d22;stop-opacity:1;"
         offset="0"
         id="stop4698" />
      <stop
         style="stop-color:#9f5f35;stop-opacity:0;"
         offset="1"
         id="stop4700" />
    </linearGradient>
    <linearGradient
       id="linearGradient4682">
      <stop
         style="stop-color:#664b38;stop-opacity:1;"
         offset="0"
         id="stop4684" />
      <stop
         style="stop-color:#bf8c6a;stop-opacity:0;"
         offset="1"
         id="stop4686" />
    </linearGradient>
    <linearGradient
       id="linearGradient4672">
      <stop
         style="stop-color:#665041;stop-opacity:1;"
         offset="0"
         id="stop4674" />
      <stop
         style="stop-color:#cfa285;stop-opacity:0;"
         offset="1"
         id="stop4676" />
    </linearGradient>
    <linearGradient
       id="linearGradient4662">
      <stop
         style="stop-color:#665449;stop-opacity:1;"
         offset="0"
         id="stop4664" />
      <stop
         style="stop-color:#dfb99f;stop-opacity:0;"
         offset="1"
         id="stop4666" />
    </linearGradient>
    <linearGradient
       id="linearGradient4643">
      <stop
         style="stop-color:#65574e;stop-opacity:1;"
         offset="0"
         id="stop4645" />
      <stop
         style="stop-color:#efcfba;stop-opacity:0;"
         offset="1"
         id="stop4647" />
    </linearGradient>
    <linearGradient
       id="linearGradient3607"
       inkscape:collect="always">
      <stop
         offset="0"
         style="stop-color:#000000;stop-opacity:1;"
         id="stop3609" />
      <stop
         offset="1"
         style="stop-color:#000000;stop-opacity:0;"
         id="stop3611" />
    </linearGradient>
    <linearGradient
       id="linearGradient3613"
       gradientUnits="userSpaceOnUse"
       inkscape:collect="always"
       x1="317.67111"
       x2="366.32343"
       xlink:href="#linearGradient3607"
       y1="449.3186"
       y2="344.85916" />
    <linearGradient
       inkscape:collect="always"
       xlink:href="#linearGradient4643"
       id="linearGradient4649"
       x1="687.37988"
       y1="364.98633"
       x2="741.76251"
       y2="421.5072"
       gradientUnits="userSpaceOnUse" />
    <linearGradient
       inkscape:collect="always"
       xlink:href="#linearGradient4662"
       id="linearGradient4668"
       x1="693.34711"
       y1="377.91891"
       x2="741.76251"
       y2="443.80176"
       gradientUnits="userSpaceOnUse" />
    <linearGradient
       inkscape:collect="always"
       xlink:href="#linearGradient4672"
       id="linearGradient4678"
       x1="733.4325"
       y1="385.21762"
       x2="763.40228"
       y2="421.04102"
       gradientUnits="userSpaceOnUse" />
    <linearGradient
       inkscape:collect="always"
       xlink:href="#linearGradient4682"
       id="linearGradient4688"
       x1="727.336"
       y1="403.86954"
       x2="750.17798"
       y2="436.32916"
       gradientUnits="userSpaceOnUse" />
    <linearGradient
       inkscape:collect="always"
       xlink:href="#linearGradient4662"
       id="linearGradient4692"
       x1="738.15588"
       y1="417.09384"
       x2="797.06409"
       y2="494.03516"
       gradientUnits="userSpaceOnUse" />
    <linearGradient
       inkscape:collect="always"
       xlink:href="#linearGradient4696"
       id="linearGradient4710"
       gradientUnits="userSpaceOnUse"
       x1="756.14618"
       y1="444.7446"
       x2="765.8067"
       y2="463.97995" />
    <linearGradient
       inkscape:collect="always"
       xlink:href="#linearGradient4714"
       id="linearGradient4720"
       x1="744.30939"
       y1="472.56259"
       x2="769.41333"
       y2="510.86609"
       gradientUnits="userSpaceOnUse" />
    <linearGradient
       inkscape:collect="always"
       xlink:href="#linearGradient4724"
       id="linearGradient4730"
       x1="774.22217"
       y1="489.22632"
       x2="797.06409"
       y2="528.89923"
       gradientUnits="userSpaceOnUse" />
    <linearGradient
       inkscape:collect="always"
       xlink:href="#linearGradient4732"
       id="linearGradient4738"
       x1="467.54929"
       y1="505.84116"
       x2="600.99939"
       y2="419.36023"
       gradientUnits="userSpaceOnUse" />
    <linearGradient
       inkscape:collect="always"
       xlink:href="#linearGradient4740"
       id="linearGradient4746"
       x1="158.11667"
       y1="337.75162"
       x2="338.33569"
       y2="251.0425"
       gradientUnits="userSpaceOnUse" />
  </defs>
  <metadata
     id="metadata7">
    <rdf:RDF>
      <cc:Work
         rdf:about="">
        <dc:format>image/svg+xml</dc:format>
        <dc:type
           rdf:resource="http://purl.org/dc/dcmitype/StillImage" />
      </cc:Work>
    </rdf:RDF>
  </metadata>
  <g
     inkscape:label="Capa 1"
     id="layer1"
     inkscape:groupmode="layer"
     transform="translate(-147.14576,-573.62253)">
    <g
       id="g6092"
       transform="matrix(0.01885062,0,0,0.02140498,144.61246,619.76967)">
      <path
         sodipodi:nodetypes="cscssccsccccccccccccccc"
         id="path4959"
         d="m 1452.91,-2152.7034 c -192.5772,438.1588 -493.02243,491.6486 -801.81643,695.3364 -188.0935,124.0709 -275.6044,410.0806 -175.6996,702.92931 479.5516,188.18411 912.56353,484.34053 1665.02603,1198.42107 79.9169,75.84078 337.8601,-48.72051 396.914,-96.2872 76.7379,-61.81111 518.3042,-707.58539 1046.8664,-777.40671 20.0856,-2.67078 -118.7951,-70.05305 -243.3357,-131.99108 56.667,-30.50034 115.231,-54.17409 175.1823,-68.66116 8.8111,-2.1293 -16.4684,-27.55217 -59.3618,-64.94551 43.9063,-12.32439 89.1194,-20.50915 135.5587,-23.26401 -27.7268,-31.96652 -56.1183,-61.45726 -84.9678,-89.0173 27.1091,-7.90638 54.4761,-14.40075 82.1536,-18.90192 -38.9531,-32.0704 -131.889,-71.88654 -239.4874,-111.15039 66.5698,-67.6556 137.4653,-138.1721 215.6028,-212.7691 -36.2802,0.9539 -113.6168,-10.596 -200.5352,-25.8489 32.5462,-51.1825 64.6348,-103.6185 96.3884,-157.5169 -25.917,0.6815 -52.9754,0.5421 -81.0768,-0.4847 12.24,-20.2351 24.3714,-40.6066 36.521,-61.2298 -59.5455,1.5657 -125.1712,-1.4338 -195.6941,-9.0472 27.7758,-53.354 55.0357,-107.4983 81.9564,-162.3633 -60.0052,9.681 -126.5157,15.711 -198.2919,17.6095 35.056,-77.4101 70.1145,-155.3399 106.2776,-233.4481 -482.8907,98.014 -953.4396,222.5057 -1758.1805,-369.963 z"
         style="fill:#1e0b00;fill-opacity:0.41011233;fill-rule:evenodd;stroke:none"
         inkscape:connector-curvature="0" />
      <g
         id="g4748"
         transform="matrix(4.109364,0,0,5.8836347,28.588452,-2774.2419)">
        <g
           id="g3341"
           transform="matrix(0.86911367,0,0,0.8124037,8.2729753,20.35981)">
          <path
             id="path3666"
             d="m 523.79883,568.55522 67.91114,58.93804 108.01364,-40.42344 c 0,0 -137.77247,-111.08257 -140.79866,-105.80202 -3.02619,5.28054 -32.82842,88.92899 -35.12612,87.28742 z"
             style="fill:#5e2500;fill-opacity:1;fill-rule:evenodd;stroke:none"
             inkscape:connector-curvature="0" />
          <path
             sodipodi:nodetypes="cscssccsccccccccccccccc"
             id="path3638"
             d="m 349.39794,114.77991 c -51.1866,84.75374 -135.87766,95.10035 -221.7813,134.5 -52.325852,23.99921 -74.919482,79.32256 -44.375002,135.96875 137.276802,36.40075 262.199502,93.68676 480.812502,231.8125 23.21834,14.66999 95.32536,-9.42409 111.6875,-18.625 21.26194,-11.95621 141.3824,-136.86936 290.5625,-150.375 5.6687,-0.51663 -34.1862,-13.55049 -69.9375,-25.53125 15.817,-5.89972 32.2237,-10.47898 49.0938,-13.28125 2.4794,-0.41186 -4.876,-5.32945 -17.3125,-12.5625 12.342,-2.38393 25.0858,-3.96711 38.2187,-4.5 -8.0989,-6.18331 -16.367,-11.88779 -24.75,-17.21875 7.618,-1.52937 15.3199,-2.78556 23.125,-3.65625 -11.2795,-6.20344 -37.9091,-13.9051 -68.6875,-21.5 18.3369,-13.08672 37.8772,-26.72685 59.4375,-41.15625 -10.2691,0.1845 -32.2633,-2.04963 -57,-5 8.8261,-9.90032 17.513,-20.04311 26.0938,-30.46875 -7.3358,0.1318 -15.0011,0.10485 -22.9688,-0.0937 3.3118,-3.9141 6.5918,-7.85458 9.875,-11.84375 -16.8544,0.30283 -35.4659,-0.27736 -55.5,-1.75 7.4582,-10.32041 14.7644,-20.79357 21.9688,-31.40625 -16.9223,1.87266 -35.7152,3.03903 -56.0313,3.40625 9.3359,-14.97357 18.6685,-30.04763 28.3125,-45.15625 -136.0273,18.95903 -268.3556,43.03966 -500.8437,-71.5625 z"
             style="fill:none;stroke:#000000;stroke-width:12.5;stroke-linecap:butt;stroke-linejoin:miter;stroke-miterlimit:4;stroke-opacity:1;stroke-dasharray:none"
             inkscape:connector-curvature="0" />
          <path
             d="m 844.36151,400.99019 c 10.55824,-1.41048 -225.03987,25.42355 -279.62548,52.54911 -54.58561,27.12556 -17.20553,175.605 110.76143,143.17243 23.64628,-5.99302 141.36823,-136.88561 290.54834,-150.39125 10.36946,-0.94506 -132.24254,-43.91981 -121.68429,-45.33029 z"
             sodipodi:nodetypes="cssss"
             id="path3531"
             style="fill:#803300;fill-opacity:1;fill-rule:evenodd;stroke:none"
             inkscape:connector-curvature="0" />
          <path
             d="m 844.36151,400.99019 c 10.55824,-1.41048 -225.03987,25.42355 -279.62548,52.54911 -54.58561,27.12556 -17.20553,175.605 110.76143,143.17243 23.64628,-5.99302 141.36823,-136.88561 290.54834,-150.39125 10.36946,-0.94506 -132.24254,-43.91981 -121.68429,-45.33029 z"
             sodipodi:nodetypes="cssss"
             id="path4722"
             style="fill:url(#linearGradient4730);fill-opacity:1;fill-rule:evenodd;stroke:none"
             inkscape:connector-curvature="0" />
          <path
             d="m 801.27334,322.80396 c 11.21174,-0.45493 -211.54332,95.49085 -265.6518,119.46714 -54.10848,23.97629 30.13849,194.70426 150.1812,133.05129 21.61303,-11.10028 125.6053,-145.60164 259.40337,-167.82666 10.53602,-1.75012 -155.14451,-84.23683 -143.93277,-84.69177 z"
             sodipodi:nodetypes="cssss"
             id="path3533"
             style="fill:#8f491a;fill-opacity:1;fill-rule:evenodd;stroke:none"
             inkscape:connector-curvature="0" />
          <path
             d="m 801.27334,322.80396 c 11.21174,-0.45493 -211.54332,95.49085 -265.6518,119.46714 -54.10848,23.97629 30.13849,194.70426 150.1812,133.05129 21.61303,-11.10028 125.6053,-145.60164 259.40337,-167.82666 10.53602,-1.75012 -155.14451,-84.23683 -143.93277,-84.69177 z"
             sodipodi:nodetypes="cssss"
             id="path4712"
             style="fill:url(#linearGradient4720);fill-opacity:1;fill-rule:evenodd;stroke:none"
             inkscape:connector-curvature="0" />
          <path
             d="M 966.10937,390.44782 C 893.16069,334.75322 808.0018,315.68925 722.97148,296.2396 c -74.33153,90.31345 -46.57059,100.83384 -177.93569,159.0437 -54.10848,23.97629 40.95695,172.16472 145.2592,100.49509 21.60198,-14.84345 122.22356,-159.09836 275.81438,-165.33057 z"
             sodipodi:nodetypes="ccssc"
             id="path3535"
             style="fill:#9f5f35;fill-opacity:1;fill-rule:evenodd;stroke:none"
             inkscape:connector-curvature="0" />
          <path
             d="M 966.10937,390.44782 C 893.16069,334.75322 808.0018,315.68925 722.97148,296.2396 c -74.33153,90.31345 -46.57059,100.83384 -177.93569,159.0437 -54.10848,23.97629 40.95695,172.16472 145.2592,100.49509 21.60198,-14.84345 122.22356,-159.09836 275.81438,-165.33057 z"
             sodipodi:nodetypes="ccssc"
             id="path4694"
             style="fill:url(#linearGradient4710);fill-opacity:1;fill-rule:evenodd;stroke:none"
             inkscape:connector-curvature="0" />
          <path
             d="m 655.79764,500.04479 c -53.99822,24.22359 -72.00952,103.62847 32.29273,31.95884 20.67711,-14.20794 133.78569,-146.5116 276.41349,-162.42228 -15.04902,-8.27659 -57.47585,-19.20513 -100.5352,-29.01386 -182.46009,147.17516 -176.28838,126.85862 -208.17102,159.4773 z"
             sodipodi:nodetypes="csccc"
             id="path3537"
             style="fill:#af764f;fill-opacity:1;fill-rule:evenodd;stroke:none"
             inkscape:connector-curvature="0" />
          <path
             d="m 655.79764,500.04479 c -53.99822,24.22359 -72.00952,103.62847 32.29273,31.95884 20.67711,-14.20794 133.78569,-146.5116 276.41349,-162.42228 -15.04902,-8.27659 -57.47585,-19.20513 -100.5352,-29.01386 -182.46009,147.17516 -176.28838,126.85862 -208.17102,159.4773 z"
             sodipodi:nodetypes="csccc"
             id="path4690"
             style="fill:url(#linearGradient4692);fill-opacity:1;fill-rule:evenodd;stroke:none"
             inkscape:connector-curvature="0" />
          <path
             d="m 655.99206,503.46638 c -44.58668,22.74322 -48.27415,54.57479 -38.91869,57.68647 -62.19209,-9.76688 -114.96438,-41.43013 -101.4757,-49.27643 81.08542,-47.16699 333.09963,-216.15439 358.98623,-212.86486 33.5652,4.2653 67.1747,8.14179 80.6444,7.89978 -114.7932,76.82621 -171.88004,131.59193 -299.23624,196.55504 z"
             sodipodi:nodetypes="ccsscs"
             id="path3539"
             style="fill:#bf8c6a;fill-opacity:1;fill-rule:evenodd;stroke:none"
             inkscape:connector-curvature="0" />
          <path
             d="m 655.99206,503.46638 c -44.58668,22.74322 -48.27415,54.57479 -38.91869,57.68647 -62.19209,-9.76688 -114.96438,-41.43013 -101.4757,-49.27643 81.08542,-47.16699 333.09963,-216.15439 358.98623,-212.86486 33.5652,4.2653 67.1747,8.14179 80.6444,7.89978 -114.7932,76.82621 -171.88004,131.59193 -299.23624,196.55504 z"
             sodipodi:nodetypes="ccsscs"
             id="path4680"
             style="fill:url(#linearGradient4688);fill-opacity:1;fill-rule:evenodd;stroke:none"
             inkscape:connector-curvature="0" />
          <path
             d="m 637.96895,490.90768 c -26.04085,11.74328 -50.15516,48.10916 -27.5182,80.91968 -62.55177,-12.10718 -52.13571,-73.77258 -34.12032,-86.18453 82.0885,-56.556 289.7986,-216.04275 300.23537,-215.38616 17.10817,1.07631 33.08933,1.46436 47.76086,1.20075 -74.33153,90.31345 -155.37581,160.38318 -286.35771,219.45026 z"
             sodipodi:nodetypes="ccsscs"
             id="path3659"
             style="fill:#cfa285;fill-opacity:1;fill-rule:evenodd;stroke:none"
             inkscape:connector-curvature="0" />
          <path
             d="m 637.96895,490.90768 c -26.04085,11.74328 -50.15516,48.10916 -27.5182,80.91968 -62.55177,-12.10718 -52.13571,-73.77258 -34.12032,-86.18453 82.0885,-56.556 289.7986,-216.04275 300.23537,-215.38616 17.10817,1.07631 33.08933,1.46436 47.76086,1.20075 -74.33153,90.31345 -155.37581,160.38318 -286.35771,219.45026 z"
             sodipodi:nodetypes="ccsscs"
             id="path4670"
             style="fill:url(#linearGradient4678);fill-opacity:1;fill-rule:evenodd;stroke:none"
             inkscape:connector-curvature="0" />
          <path
             d="m 512.22325,500.93118 c 42.64724,-21.90328 278.70352,-249.86946 311.2869,-246.17129 32.58338,3.69817 62.15246,5.22032 87.73855,4.76061 -74.33153,90.31345 -154.99261,161.2404 -286.35771,219.45026 -34.88551,15.4583 -49.36694,76.66307 -23.08164,101.67692 14.48399,13.7834 -132.23334,-57.81322 -89.5861,-79.7165 z"
             sodipodi:nodetypes="cccsss"
             id="path2195"
             style="fill:#dfb99f;fill-opacity:1;fill-rule:evenodd;stroke:none"
             inkscape:connector-curvature="0" />
          <path
             d="m 512.22325,500.93118 c 42.64724,-21.90328 278.70352,-249.86946 311.2869,-246.17129 32.58338,3.69817 62.15246,5.22032 87.73855,4.76061 -74.33153,90.31345 -154.99261,161.2404 -286.35771,219.45026 -34.88551,15.4583 -49.36694,76.66307 -23.08164,101.67692 14.48399,13.7834 -132.23334,-57.81322 -89.5861,-79.7165 z"
             sodipodi:nodetypes="cccsss"
             id="path4660"
             style="fill:url(#linearGradient4668);fill-opacity:1;fill-rule:evenodd;stroke:none"
             inkscape:connector-curvature="0" />
          <path
             d="m 478.11278,514.38546 c 35.61712,-9.02698 279.00174,-285.35905 311.78725,-284.67814 32.78551,0.68091 62.36908,-0.52728 87.80403,-3.34199 -65.69592,96.77676 -139.48127,181.98244 -266.34954,245.02786 -39.39276,19.57569 -55.1684,93.05486 -12.802,120.25159 16.33971,10.48913 -156.05687,-68.23235 -120.43974,-77.25932 z"
             sodipodi:nodetypes="cccsss"
             id="path3168"
             style="fill:#efcfba;fill-opacity:1;fill-rule:evenodd;stroke:none"
             inkscape:connector-curvature="0" />
          <path
             style="fill:url(#linearGradient4649);fill-opacity:1;fill-rule:evenodd;stroke:none"
             id="path4641"
             sodipodi:nodetypes="cccsss"
             d="m 478.11278,514.38546 c 35.61712,-9.02698 279.00174,-285.35905 311.78725,-284.67814 32.78551,0.68091 62.36908,-0.52728 87.80403,-3.34199 -65.69592,96.77676 -139.48127,181.98244 -266.34954,245.02786 -39.39276,19.57569 -55.1684,93.05486 -12.802,120.25159 16.33971,10.48913 -156.05687,-68.23235 -120.43974,-77.25932 z"
             inkscape:connector-curvature="0" />
          <path
             inkscape:connector-curvature="0"
             d="M 347.12043,112.14219 C 579.60852,226.74436 711.92602,202.64877 847.95325,183.68974 785.01909,282.28481 735.45092,380.3784 610.4154,446.98471 556.61834,475.64236 501.04187,637.2725 673.65323,596.30237 632.8006,617.84126 574.88244,622.84103 561.76307,614.40597 344.16481,474.50191 218.24035,418.99267 80.963551,382.59192 50.419076,325.94573 72.997177,270.65079 125.32303,246.65158 c 85.90366,-39.39965 170.6108,-49.75565 221.7974,-134.50939 z"
             sodipodi:nodetypes="ccscscsc"
             id="path2560"
             style="fill:#ffe6d5;fill-rule:evenodd;stroke:none" />
          <path
             sodipodi:nodetypes="ccccccccccccccsssccsscccsccssccccccccccccccccccccsssccccsscsccccccccccccccccccccccccccscccsssccccssccsssccc"
             inkscape:connector-curvature="0"
             style="font-size:102.74385834px;font-style:normal;font-variant:normal;font-weight:normal;font-stretch:normal;text-align:start;line-height:125%;writing-mode:lr-tb;text-anchor:start;fill:#000000;fill-opacity:1;stroke:none;font-family:Tw Cen MT Condensed Extra Bold"
             d="m 432.56568,181.62977 10.66781,3.10482 -28.53693,32.76128 7.46337,-5.50786 34.11201,-23.45864 10.56324,3.0744 -72.74687,50.02761 -10.84213,-3.15556 28.16193,-32.23042 -8.76677,6.30184 -32.2593,22.18452 -10.56324,-3.07438 z m -15.03542,68.58428 c -5.62443,-1.63696 -6.54305,-5.20212 -2.75585,-10.69545 3.78717,-5.49332 12.03814,-12.61193 24.753,-21.35585 11.73389,-8.06934 22.36111,-13.92746 31.88166,-17.57443 9.5204,-3.64684 16.93017,-4.69916 22.2293,-3.15694 5.64757,1.64376 6.67699,5.16115 3.08823,10.55218 -3.58894,5.39109 -11.48647,12.28368 -23.6926,20.67781 -12.20626,8.39414 -23.14881,14.48051 -32.82766,18.2591 -9.67893,3.77857 -17.2376,4.87644 -22.67608,3.29358 z m 59.66675,-41.4078 c -3.81167,-1.10931 -12.7106,3.14516 -26.69683,12.76342 -9.0094,6.19568 -14.53942,10.47067 -16.59008,12.82492 -2.05075,2.35428 -2.15806,3.79862 -0.322,4.33297 1.97548,0.57498 4.99959,-0.0204 9.07234,-1.78621 4.07267,-1.76577 10.50472,-5.67154 19.29614,-11.71734 14.20419,-9.76815 19.28431,-15.24074 15.24038,-16.41777 l 0,0 z m 36.24886,-3.63665 25.20534,7.3359 -16.62007,11.42954 -7.28619,-2.12063 -56.1268,38.59809 -10.70267,-3.11497 56.1268,-38.59809 -7.21647,-2.10031 z m 16.05552,20.34205 9.19113,4.10347 -55.25252,38.02166 -10.56323,-3.07437 z m 5.93091,40.45719 -17.27398,11.87923 c -3.35736,0.12512 -5.91922,-0.0694 -7.68554,-0.58351 -6.11252,-1.77903 -7.48136,-5.68854 -4.10653,-11.72857 3.37479,-6.04 10.911,-13.0822 22.60865,-21.12662 10.86203,-7.46975 21.74337,-13.07613 32.64408,-16.81917 10.90054,-3.74296 19.27929,-4.76215 25.13621,-3.0576 2.27756,0.66296 3.89703,1.59652 4.85839,2.80068 l -17.32846,11.9167 c -0.96857,-1.31295 -2.34761,-2.22988 -4.13713,-2.75075 -2.74256,-0.79816 -6.98194,-0.11202 -12.71811,2.05846 -5.73632,2.17053 -11.63784,5.34182 -17.70456,9.51388 -6.5391,4.49688 -10.79453,8.31615 -12.76631,11.45782 -1.97186,3.14167 -1.43547,5.15559 1.60921,6.04171 1.48741,0.4329 3.77543,0.56549 6.86411,0.39714 l 0,0 z m 62.76347,-36.13316 10.56324,3.07438 -72.74688,50.02761 -10.56322,-3.07438 z m -19.23346,65.60245 -10.98158,-3.19614 10.37376,-8.87415 -11.15589,-3.24686 -13.99942,7.8189 -10.77241,-3.13526 85.08807,-46.43575 11.85315,3.44979 z m 10.44826,-21.65251 c 9.24528,-7.90476 18.35895,-15.33229 27.34104,-22.28262 l -0.13944,-0.0406 c -10.89963,6.67667 -22.37229,13.41764 -34.41806,20.22287 l 7.21646,2.10032 z m -3.71719,22.27822 16.94703,-11.65438 c 0.29518,3.07262 1.58162,4.94036 3.85931,5.60326 1.32474,0.38557 2.94276,0.29649 4.85408,-0.26723 1.91127,-0.56372 3.81145,-1.49513 5.70054,-2.79423 1.45309,-0.9993 2.50745,-2.02577 3.16306,-3.07943 0.65554,-1.05364 1.13619,-2.42485 1.44194,-4.11368 0.71041,-4.05988 2.12635,-7.62113 4.24782,-10.68373 2.12139,-3.06254 5.48894,-6.18023 10.10264,-9.35305 6.28469,-4.32194 12.67359,-7.47583 19.16673,-9.46167 6.49299,-1.98574 11.7499,-2.39353 15.77076,-1.22333 2.97481,0.86589 4.92745,2.41197 5.85792,4.63826 l -16.29311,11.20469 c -0.4494,-2.76187 -1.65019,-4.4269 -3.6024,-4.99514 -1.3016,-0.37878 -2.82955,-0.3346 -4.58384,0.13257 -1.75443,0.46721 -3.50349,1.30039 -5.24716,2.49951 -3.05162,2.09857 -4.7299,4.97014 -5.0348,8.61469 -0.16072,2.15772 -1.20952,4.95469 -3.14653,8.39091 -1.93713,3.43626 -5.59394,7.00308 -10.97043,10.70049 -6.28479,4.32198 -12.89489,7.4915 -19.83028,9.50855 -6.93548,2.01704 -12.56465,2.39646 -16.88754,1.13835 -2.95166,-0.85906 -4.79024,-2.46085 -5.51574,-4.80534 l 0,0 z"
             id="text3567" />
          <path
             id="path3605"
             sodipodi:nodetypes="ccccc"
             d="m 234.67595,437.87098 c 0,0 -32.91187,-72.97849 91.58086,-121.63082 34.34092,-2.2105 160.10412,67.77197 208.91884,87.288 0,0 -148.8189,57.23804 -91.58086,141.66414 C 321.96395,467.92096 230.3831,439.30193 234.67595,437.87098 z"
             style="fill:url(#linearGradient3613);fill-opacity:1;fill-rule:evenodd;stroke:#000000;stroke-width:1px;stroke-linecap:butt;stroke-linejoin:miter;stroke-opacity:1"
             inkscape:connector-curvature="0" />
          <path
             id="path3615"
             sodipodi:nodetypes="ccccc"
             d="m 336.27347,304.79255 273.31163,98.73561 c 0,0 40.06662,-10.01665 50.08328,-24.32616 -36.64487,-6.9419 -303.32004,-97.76311 -279.03543,-101.59752 l -44.35948,27.18807 z"
             style="fill:#000000;fill-rule:evenodd;stroke:#000000;stroke-width:1px;stroke-linecap:butt;stroke-linejoin:miter;stroke-opacity:1"
             inkscape:connector-curvature="0" />
          <path
             id="path3617"
             sodipodi:nodetypes="ccccc"
             d="m 457.9043,550.91611 c 0,0 -67.25469,-64.3928 93.01181,-141.66415 l 50.08329,15.74046 c 0,0 -163.12842,104.45942 -62.96185,177.43792 -51.51424,-34.34282 -80.13325,-51.51423 -80.13325,-51.51423 z"
             style="fill:url(#linearGradient4738);fill-opacity:1;fill-rule:evenodd;stroke:none"
             inkscape:connector-curvature="0" />
          <path
             id="path3633"
             sodipodi:nodetypes="ccccc"
             d="m 347.72108,269.01877 c 0,0 -181.73077,53.21441 -144.52605,151.95003 -50.08328,-14.30951 -103.02847,-32.64264 -103.02847,-32.64264 0,0 -57.238032,-119.30739 133.07844,-162.23591 l 114.47608,42.92852 z"
             style="fill:url(#linearGradient4746);fill-opacity:1;fill-rule:evenodd;stroke:none"
             inkscape:connector-curvature="0" />
          <text
             inkscape:transform-center-x="-4.4142544"
             inkscape:transform-center-y="-36.464982"
             transform="matrix(0.92182988,0.32050267,-0.29804664,0.98117372,0,0)"
             sodipodi:linespacing="125%"
             id="text3333"
             y="122.73179"
             x="400.52469"
             style="font-size:27.14699745px;font-style:normal;font-weight:normal;line-height:125%;letter-spacing:0px;word-spacing:0px;fill:#000000;fill-opacity:1;stroke:none;font-family:Sans"
             xml:space="preserve"><tspan
               style="font-weight:bold;-inkscape-font-specification:Sans Bold"
               y="122.73179"
               x="400.52469"
               id="tspan3335"
               sodipodi:role="line">Notícias de estágio</tspan></text>
          <text
             transform="matrix(0.63357267,0.76106925,-0.82643406,0.58560993,0,0)"
             sodipodi:linespacing="125%"
             id="text3337"
             y="-210.4048"
             x="487.33002"
             style="font-size:91.43610382px;font-style:normal;font-weight:normal;line-height:125%;letter-spacing:0px;word-spacing:0px;fill:#000000;fill-opacity:1;stroke:none;font-family:Sans"
             xml:space="preserve"><tspan
               y="-210.4048"
               x="487.33002"
               id="tspan3339"
               sodipodi:role="line">í</tspan></text>
        </g>
      </g>
      <text
         xml:space="preserve"
         style="font-size:343.54058838px;font-style:normal;font-weight:normal;line-height:125%;letter-spacing:0px;word-spacing:0px;fill:#000000;fill-opacity:1;stroke:none;font-family:Sans"
         x="221.60068"
         y="818.28864"
         id="text3371"
         sodipodi:linespacing="125%"
         transform="scale(1.1073059,0.90309283)"><tspan
           sodipodi:role="line"
           id="tspan3373"
           x="221.60068"
           y="818.28864">Mural de estágio</tspan></text>
    </g>
  </g>
</svg>
